<?xml version="1.0" encoding="iso-8859-1"?>
<!-- Generator: Adobe Illustrator 19.0.0, SVG Export Plug-In . SVG Version: 6.00 Build 0)  -->
<svg version="1.1" id="Layer_1" xmlns="http://www.w3.org/2000/svg" xmlns:xlink="http://www.w3.org/1999/xlink" x="0px" y="0px"
	 viewBox="0 0 432.69 432.69" style="enable-background:new 0 0 432.69 432.69;" xml:space="preserve">
<g>
	<path style="fill:#FCCF92;" d="M277.221,72.981c0,30.51-19.207,40.613-48.497,43.633c-2.97,0.32-9.278,2.25-12.378,2.25
		s-5.642-1.378-8.622-1.688c-1.49-0.15-3.473,6.795-4.923,6.565c-27.1-4.29-47.33-21.8-47.33-50.76c0-18.37,8.13-38.44,20.98-52.87
		c10.69-12,24.65-20.11,39.9-20.11C249.971,0.001,277.221,39.361,277.221,72.981z"/>
	<path style="fill:#FFFFFF;" d="M228.302,71.097c0,9.697-5.352,17.558-11.954,17.558c-6.602,0-11.954-7.861-11.954-17.558H228.302z"
		/>
	<g>
		<path d="M195.998,64.56c0,0-0.303-0.04-0.778-0.17c-0.234-0.079-0.532-0.14-0.829-0.189c-0.299-0.06-0.603-0.132-0.969-0.187
			c-0.345-0.076-0.715-0.135-1.097-0.184c-0.368-0.082-0.776-0.08-1.158-0.154c-0.403-0.009-0.794-0.077-1.2-0.08
			c-0.401-0.033-0.808-0.021-1.213-0.038c-0.405,0.017-0.811,0.007-1.212,0.041c-0.406,0.007-0.797,0.069-1.199,0.082
			c-0.382,0.074-0.79,0.073-1.157,0.155c-0.382,0.048-0.751,0.107-1.096,0.183c-0.361,0.049-0.683,0.133-0.988,0.199
			c-0.309,0.06-0.594,0.111-0.817,0.178c-0.461,0.116-0.775,0.164-0.775,0.164s0.059-0.289,0.251-0.763
			c0.092-0.242,0.22-0.528,0.416-0.818c0.187-0.301,0.415-0.637,0.719-0.948c0.148-0.162,0.311-0.322,0.481-0.492
			c0.18-0.151,0.376-0.296,0.578-0.452c0.401-0.321,0.883-0.551,1.382-0.808c0.517-0.196,1.06-0.427,1.642-0.519
			c0.574-0.149,1.177-0.163,1.776-0.201c0.599,0.039,1.201,0.054,1.776,0.204c0.581,0.096,1.125,0.322,1.641,0.521
			c0.499,0.257,0.981,0.487,1.381,0.808c0.201,0.156,0.398,0.3,0.578,0.452c0.17,0.17,0.334,0.329,0.481,0.491
			c0.299,0.306,0.545,0.654,0.737,0.96c0.208,0.3,0.323,0.577,0.404,0.807C195.927,64.262,195.998,64.56,195.998,64.56z"/>
		<path d="M251.189,64.56c0,0-0.303-0.04-0.778-0.17c-0.234-0.079-0.532-0.14-0.829-0.189c-0.299-0.06-0.603-0.132-0.969-0.187
			c-0.345-0.076-0.715-0.135-1.097-0.184c-0.368-0.082-0.776-0.08-1.158-0.154c-0.403-0.009-0.794-0.077-1.2-0.08
			c-0.402-0.033-0.808-0.021-1.213-0.038c-0.405,0.017-0.811,0.007-1.212,0.041c-0.406,0.007-0.797,0.069-1.199,0.082
			c-0.382,0.074-0.79,0.073-1.157,0.155c-0.382,0.048-0.752,0.107-1.097,0.183c-0.361,0.049-0.682,0.133-0.987,0.199
			c-0.309,0.06-0.594,0.111-0.817,0.178c-0.461,0.116-0.775,0.164-0.775,0.164s0.059-0.289,0.251-0.763
			c0.092-0.242,0.22-0.528,0.416-0.818c0.187-0.301,0.415-0.637,0.719-0.948c0.148-0.162,0.311-0.322,0.481-0.492
			c0.18-0.151,0.376-0.296,0.578-0.452c0.401-0.321,0.883-0.551,1.382-0.808c0.517-0.196,1.06-0.427,1.642-0.519
			c0.574-0.149,1.177-0.163,1.776-0.201c0.599,0.039,1.201,0.054,1.776,0.204c0.581,0.096,1.125,0.322,1.641,0.521
			c0.499,0.257,0.981,0.487,1.381,0.808c0.202,0.156,0.398,0.3,0.578,0.452c0.17,0.17,0.334,0.329,0.481,0.491
			c0.299,0.306,0.545,0.654,0.737,0.96c0.208,0.3,0.323,0.577,0.404,0.807C251.118,64.262,251.189,64.56,251.189,64.56z"/>
	</g>
	<path style="fill:#FCCF92;" d="M122.019,250.1c-0.28,2.93-0.42,5.89-0.42,8.89v0.22c0.01,2.88-4.11,3.42-4.77,0.61
		c-0.75-3.18-1.35-6.42-1.78-9.72H122.019z"/>
	<path style="fill:#FCCF92;" d="M317.649,250.1c-0.44,3.27-1.03,6.49-1.77,9.66c-0.66,2.81-4.79,2.34-4.79-0.55v-0.22
		c0-3-0.14-5.96-0.42-8.89L317.649,250.1L317.649,250.1z"/>
	<path style="fill:#333333;" d="M236.879,136.37c-5.66-1.22-10.07-5.64-11.25-11.3l-0.16-0.76c14.64-1.51,27.58-6.71,36.86-15.36
		c9.28-8.64,14.89-20.71,14.89-35.97c0-33.62-27.25-72.98-60.87-72.98c-15.25,0-29.21,8.11-39.9,20.11
		c-12.85,14.43-20.98,34.5-20.98,52.87c0,28.96,20.23,46.47,47.33,50.76c1.45,0.23,2.93,0.42,4.42,0.57l-0.13,0.64
		c-1.19,5.7-5.66,10.15-11.37,11.32c-46.56,9.54-81.59,50.75-81.59,100.13c0,4.65,0.31,9.22,0.92,13.7h6.97
		c1.447-15.622,6.693-30.143,14.804-42.633c9.497-14.625,32.188-7.471,31.439,9.951l-9.258,215.272h114.681l-9.25-215.262
		c-0.749-17.422,21.944-24.576,31.439-9.95c8.106,12.486,13.348,27.003,14.795,42.622h6.98c0.67-5,0.98-10.11,0.9-15.31
		C317.819,187.33,282.169,146.12,236.879,136.37z M170.799,63.1c0-27.06,20.39-37.86,45.55-37.86c25.15,0,45.55,10.8,45.55,37.86
		s-20.4,49-45.55,49C191.189,112.1,170.799,90.16,170.799,63.1z"/>
	<path style="opacity:0.29;fill:#4D4D4D;enable-background:new    ;" d="M261.896,63.1c0,1.83-0.09,3.63-0.28,5.41
		c-2.5-23.21-21.82-32.6-45.27-32.6c-23.46,0-42.77,9.39-45.27,32.6c-0.19-1.78-0.28-3.58-0.28-5.41
		c0-27.06,20.39-37.86,45.55-37.86C241.496,25.24,261.896,36.04,261.896,63.1z"/>
</g>
<g>
</g>
<g>
</g>
<g>
</g>
<g>
</g>
<g>
</g>
<g>
</g>
<g>
</g>
<g>
</g>
<g>
</g>
<g>
</g>
<g>
</g>
<g>
</g>
<g>
</g>
<g>
</g>
<g>
</g>
</svg>
