<?xml version="1.0" encoding="iso-8859-1"?>
<!-- Generator: Adobe Illustrator 19.0.0, SVG Export Plug-In . SVG Version: 6.00 Build 0)  -->
<svg version="1.1" id="Layer_1" xmlns="http://www.w3.org/2000/svg" xmlns:xlink="http://www.w3.org/1999/xlink" x="0px" y="0px"
	 viewBox="0 0 438.054 438.054" style="enable-background:new 0 0 438.054 438.054;" xml:space="preserve">
<g>
	<polygon style="fill:#EF8E8E;" points="278.116,145.377 265.165,97.345 219.028,106.276 172.891,97.345 159.941,145.377 
		178.607,167.377 219.028,135.882 259.449,167.377 	"/>
	<path style="fill:#FCCF92;" d="M279.901,74.287c0,30.51-22.46,48.31-51.75,51.33c-2.97,0.32-6.02,0.47-9.12,0.47
		c-3.1,0-6.15-0.16-9.13-0.47c-1.49-0.15-2.97-0.34-4.42-0.57c-9.97-1.58-19.01-4.95-26.46-10.03
		c-9.21-6.26-15.98-15.14-19.04-26.45c-1.2-4.39-1.83-9.16-1.83-14.28c0-18.37,8.13-38.44,20.98-52.87
		c10.69-12,24.65-20.11,39.9-20.11C252.651,1.308,279.901,40.667,279.901,74.287z"/>
	<path style="fill:#FFFFFF;" d="M230.985,81.183c0,9.697-5.352,17.558-11.954,17.558c-6.602,0-11.954-7.861-11.954-17.558H230.985z"
		/>
	<g>
		<path d="M198.681,65.867c0,0-0.303-0.04-0.778-0.17c-0.234-0.079-0.532-0.14-0.829-0.189c-0.299-0.06-0.603-0.132-0.969-0.187
			c-0.345-0.076-0.715-0.135-1.097-0.183c-0.368-0.083-0.776-0.081-1.158-0.155c-0.403-0.009-0.794-0.077-1.2-0.08
			c-0.401-0.034-0.808-0.022-1.213-0.038c-0.405,0.017-0.811,0.007-1.212,0.041c-0.406,0.007-0.797,0.069-1.199,0.082
			c-0.382,0.074-0.79,0.072-1.157,0.155c-0.382,0.048-0.752,0.107-1.097,0.183c-0.361,0.049-0.683,0.133-0.987,0.199
			c-0.309,0.06-0.594,0.111-0.817,0.178c-0.461,0.116-0.775,0.164-0.775,0.164s0.059-0.289,0.251-0.763
			c0.092-0.242,0.22-0.528,0.416-0.818c0.187-0.301,0.415-0.637,0.719-0.948c0.148-0.161,0.311-0.322,0.481-0.491
			c0.18-0.151,0.376-0.296,0.578-0.453c0.401-0.32,0.882-0.551,1.382-0.808c0.517-0.196,1.06-0.427,1.642-0.519
			c0.574-0.149,1.177-0.162,1.776-0.201c0.599,0.039,1.201,0.054,1.776,0.204c0.581,0.096,1.125,0.322,1.641,0.521
			c0.499,0.257,0.981,0.488,1.381,0.808c0.202,0.156,0.398,0.3,0.578,0.452c0.17,0.17,0.334,0.329,0.481,0.491
			c0.299,0.306,0.545,0.654,0.737,0.96c0.208,0.3,0.323,0.577,0.404,0.807C198.61,65.569,198.681,65.867,198.681,65.867z"/>
		<path d="M253.871,65.867c0,0-0.303-0.04-0.778-0.17c-0.234-0.079-0.532-0.14-0.829-0.189c-0.299-0.06-0.603-0.132-0.969-0.187
			c-0.345-0.076-0.715-0.135-1.097-0.183c-0.368-0.083-0.776-0.081-1.158-0.155c-0.403-0.009-0.794-0.077-1.2-0.08
			c-0.401-0.034-0.808-0.022-1.213-0.038c-0.405,0.017-0.811,0.007-1.212,0.041c-0.406,0.007-0.797,0.069-1.199,0.082
			c-0.382,0.074-0.79,0.072-1.157,0.155c-0.382,0.048-0.752,0.107-1.097,0.183c-0.361,0.049-0.683,0.133-0.987,0.199
			c-0.309,0.06-0.594,0.111-0.817,0.178c-0.461,0.116-0.775,0.164-0.775,0.164s0.059-0.289,0.251-0.763
			c0.092-0.242,0.22-0.528,0.416-0.818c0.187-0.301,0.415-0.637,0.719-0.948c0.148-0.161,0.311-0.322,0.481-0.491
			c0.18-0.151,0.376-0.296,0.578-0.453c0.401-0.32,0.882-0.551,1.382-0.808c0.517-0.196,1.06-0.427,1.642-0.519
			c0.574-0.149,1.177-0.162,1.776-0.201c0.599,0.039,1.201,0.054,1.776,0.204c0.581,0.096,1.125,0.322,1.641,0.521
			c0.499,0.257,0.981,0.487,1.381,0.808c0.202,0.156,0.398,0.3,0.578,0.452c0.17,0.17,0.334,0.329,0.481,0.491
			c0.299,0.306,0.545,0.654,0.737,0.96c0.208,0.3,0.323,0.577,0.404,0.807C253.801,65.569,253.871,65.867,253.871,65.867z"/>
	</g>
	<path style="fill:#FCCF92;" d="M206.121,396.257c-0.11,0.97-0.23,1.94-0.34,2.89c-1.88,15.75-3.62,29.15-4.68,37.06
		c-0.28,2.17-3.27,2.54-4.07,0.51c-4.82-12.15-8.65-26.22-11.65-41.4C190.531,395.788,197.991,396.097,206.121,396.257z"/>
	<path style="fill:#FCCF92;" d="M253.211,394.687c-3.02,15.42-6.89,29.7-11.77,42.03c-0.8,2.03-3.79,1.66-4.08-0.51
		c-1.06-7.93-2.8-21.37-4.68-37.15c-0.11-0.96-0.23-1.92-0.34-2.9c9.33-0.25,17.1-0.74,20.46-1.46L253.211,394.687z"/>
	<path style="fill:#FCCF92;" d="M321.141,242.257c-0.28,6.45-1.16,12.73-2.58,18.81c-0.66,2.81-4.79,2.34-4.79-0.55v-0.22
		c0-6.21-0.6-12.13-1.74-17.74L321.141,242.257z"/>
	<path style="fill:#FCCF92;" d="M126.031,242.558c-1.15,5.61-1.75,11.53-1.75,17.74v0.22c0.01,2.88-4.11,3.42-4.77,0.61
		c-1.43-6.1-2.31-12.41-2.6-18.87L126.031,242.558z"/>
	<path style="fill:#FCCF92;" d="M219.031,168.131c17.073,0,31.758-10.182,38.342-24.8c-5.721-2.414-11.674-4.332-17.812-5.654
		c-0.23-0.05-0.46-0.11-0.69-0.18c-3.93-1.03-7.19-3.64-9.08-7.11c-0.68-1.24-1.18-2.58-1.48-4.01l-0.16-0.76
		c-2.97,0.32-6.02,0.47-9.12,0.47c-3.1,0-6.15-0.16-9.13-0.47l-0.13,0.64c-0.3,1.43-0.8,2.78-1.48,4.02
		c-1.92,3.51-5.24,6.14-9.23,7.14c-0.21,0.06-0.43,0.11-0.66,0.16c-6.177,1.266-12.143,3.104-17.859,5.43
		C187.054,157.798,201.832,168.131,219.031,168.131z"/>
	<path style="opacity:0.29;fill:#4D4D4D;enable-background:new    ;" d="M232.103,133.518c-4.07,1.53-8.47,2.36-13.07,2.36
		c-4.62,0-9.05-0.84-13.14-2.38c1.93-1.95,3.3-4.45,3.88-7.24l0.13-0.64c2.98,0.31,6.03,0.47,9.13,0.47s6.15-0.15,9.12-0.47
		l0.16,0.76C228.883,129.128,230.223,131.578,232.103,133.518z"/>
	<path style="fill:#E6E6E6;" d="M321.231,236.097c0.03,2.07,0,4.13-0.09,6.16l-9.11,0.3c-5.71-28.04-25.02-48.27-51.11-58.49
		c0.02,0.32,0.04,0.65,0.07,0.99c0.02,0.35,0.05,0.7,0.07,1.06c2.41,33.75,13.48,134.22-3.14,208.49l-4.71,0.08l-0.41,0.01
		c-3.36,0.72-11.13,1.21-20.46,1.46c-3.28,0.09-6.76,0.14-10.31,0.17c-1.98,0.02-3.99,0.02-6,0.02c-3.34,0-6.68-0.04-9.91-0.09
		c-8.13-0.16-15.59-0.47-20.74-0.94c-1.97-0.18-3.6-0.39-4.81-0.62c-16.67-74.42-5.55-175.2-3.15-208.77
		c0.02-0.35,0.05-0.69,0.07-1.03c0.03-0.34,0.05-0.68,0.07-1c-26.31,10.17-45.8,30.47-51.53,58.66l-9.12-0.3
		c-0.07-1.51-0.1-3.03-0.1-4.55c0-49.38,35.03-90.59,81.59-100.13c0.23-0.05,0.45-0.1,0.66-0.16c4.94-1.37,3.67-5.69,5.45-11.16
		l0.17,0.16c1.31,1.2,2.51,2.49,3.61,3.86c4.98,6.2,7.74,13.95,7.74,22v2.77c0,0.83,0.33,1.57,0.88,2.12
		c0.54,0.54,1.29,0.88,2.12,0.88c1.65,0,3-1.35,3-3v-2.63c0-8.07,2.77-15.83,7.76-22.03c1.13-1.39,2.36-2.71,3.7-3.93l0.08-0.08
		c1.77,5.42,0.46,9.7,5.3,11.12c0.21,0.07,0.45,0.13,0.69,0.18C284.851,147.427,320.501,188.637,321.231,236.097z"/>
	<path style="fill:#B3B3B3;" d="M222.031,155.047v241.28c-1.98,0.02-3.99,0.02-6,0.02v-241.3c0,0.83,0.33,1.57,0.88,2.12
		c0.54,0.54,1.29,0.88,2.12,0.88C220.681,158.047,222.031,156.697,222.031,155.047z"/>
	<path style="opacity:0.29;fill:#4D4D4D;enable-background:new    ;" d="M179.021,115.018c-9.21-6.26-15.98-15.14-19.04-26.45
		l-1.54-19.19l11.5-29l7.37,5.55L179.021,115.018z"/>
	<path style="opacity:0.29;fill:#4D4D4D;enable-background:new    ;" d="M259.234,114.885c9.139-6.323,15.977-15.008,19.037-26.318
		l1.54-19.19l-11.5-29l-7.37,5.55L259.234,114.885z"/>
	<path style="opacity:0.29;fill:#4D4D4D;enable-background:new    ;" d="M265.362,33.994c5.423,1.071,5.871,8.592,0.623,10.331
		c-13.597,4.506-29.697,7.116-46.95,7.116c-17.31,0-33.447-2.624-47.069-7.153c-5.188-1.725-4.634-9.235,0.73-10.295
		C203.286,27.952,234.773,27.952,265.362,33.994z"/>
	<path style="fill:#F2A7A5;" d="M164.488,39.042l-24.673,80.531c-1.984,6.476-0.348,13.519,4.288,18.457l23.17,24.682l10.998-127.98
		l0.335-6.687L164.488,39.042z"/>
	<path style="fill:#EF8E8E;" d="M274.878,25.911c-36.788-8.042-74.912-8.042-111.7,0C178.632,10.277,198.016,0,219.036,0
		C240.071,0,259.455,10.277,274.878,25.911z"/>
	<path style="fill:#F2A7A5;" d="M273.568,39.042l24.673,80.531c1.984,6.476,0.348,13.519-4.288,18.457l-23.171,24.682
		l-10.998-127.98l-0.335-6.687L273.568,39.042z"/>
	<path style="fill:#4D4D4D;" d="M273.568,39.042c-35.228-12.805-73.852-12.805-109.08,0c-3.691,1.342-7.786-0.4-9.289-4.029
		c-0.04-0.097-0.08-0.194-0.12-0.29c-1.593-3.846,0.364-8.225,4.276-9.648c38.542-14.022,80.806-14.022,119.348,0
		c3.912,1.423,5.869,5.802,4.276,9.648c-0.04,0.097-0.08,0.194-0.12,0.29C281.355,38.641,277.26,40.383,273.568,39.042z"/>
	<path style="fill:#CCCCCC;" d="M260.753,34.987c-10.66,5.63-25.42,9.12-41.72,9.12c-16.31,0-31.06-3.49-41.73-9.12
		C204.623,27.587,233.433,27.587,260.753,34.987z"/>
</g>
<g>
</g>
<g>
</g>
<g>
</g>
<g>
</g>
<g>
</g>
<g>
</g>
<g>
</g>
<g>
</g>
<g>
</g>
<g>
</g>
<g>
</g>
<g>
</g>
<g>
</g>
<g>
</g>
<g>
</g>
</svg>
